<svg width="9" height="15" viewBox="0 0 9 15" fill="none" xmlns="http://www.w3.org/2000/svg">
    <path d="M8.75564 6.9147L1.93832 0.239632C1.78065 0.0851213 1.57016 0 1.34573 0C1.12129 0 0.91081 0.0851213 0.753134 0.239632L0.251086 0.731092C-0.0755999 1.05133 -0.0755999 1.57182 0.251086 1.89157L5.97575 7.49689L0.244734 13.1084C0.0870582 13.2629 0 13.4689 0 13.6885C0 13.9084 0.0870582 14.1144 0.244734 14.269L0.746782 14.7604C0.904583 14.9149 1.11494 15 1.33938 15C1.56381 15 1.77429 14.9149 1.93197 14.7604L8.75564 8.0792C8.91369 7.9242 9.0005 7.71725 9 7.49726C9.0005 7.2764 8.91369 7.06958 8.75564 6.9147Z"
          fill="#384B64"/>
</svg>
