<svg width="23" height="14" viewBox="0 0 23 14" fill="none" xmlns="http://www.w3.org/2000/svg">
<path d="M23 6.87102C23 6.65676 22.8955 6.33538 22.6864 6.22825L16.9364 0.336215C16.4136 -0.0922973 15.7864 -0.0922973 15.3682 0.229087C14.95 0.55047 14.8455 1.30037 15.2636 1.72888L19.3409 5.90687H1.15C0.522727 5.90687 0 6.33538 0 6.97815C0 7.62092 0.522727 8.04943 1.15 8.04943H19.3409L15.2636 12.2274C14.8455 12.6559 14.95 13.2987 15.3682 13.7272C15.7864 14.1557 16.6227 14.0486 16.9364 13.6201L22.6864 7.72804C22.8955 7.40666 23 7.1924 23 6.87102Z" fill="white"/>
</svg>
