<svg width="84" height="84" viewBox="0 0 84 84" fill="none" xmlns="http://www.w3.org/2000/svg">
    <rect width="84" height="84" rx="14.7" fill="url(#paint0_linear)"/>
    <path fill-rule="evenodd" clip-rule="evenodd"
          d="M19 23.541C19 22.1376 20.1376 21 21.541 21H63.459C64.8624 21 66 22.1376 66 23.541V27.8323H19V23.541ZM22.6318 25.6972C23.2218 25.6972 23.7 25.2192 23.7 24.6297C23.7 24.0401 23.2218 23.5621 22.6318 23.5621C22.0419 23.5621 21.5636 24.0401 21.5636 24.6297C21.5636 25.2192 22.0419 25.6972 22.6318 25.6972ZM27.1182 24.6297C27.1182 25.2192 26.6399 25.6972 26.05 25.6972C25.4601 25.6972 24.9818 25.2192 24.9818 24.6297C24.9818 24.0401 25.4601 23.5621 26.05 23.5621C26.6399 23.5621 27.1182 24.0401 27.1182 24.6297ZM29.4682 25.6972C30.0581 25.6972 30.5364 25.2192 30.5364 24.6297C30.5364 24.0401 30.0581 23.5621 29.4682 23.5621C28.8782 23.5621 28.4 24.0401 28.4 24.6297C28.4 25.2192 28.8782 25.6972 29.4682 25.6972ZM19 28.9846H66V61.459C66 62.8624 64.8624 64 63.459 64H21.541C20.1376 64 19 62.8624 19 61.459V28.9846ZM50.8546 38.3321C50.8546 36.4717 49.3027 34.9628 47.3892 34.9628C45.4752 34.9628 43.9239 36.4717 43.9239 38.3321C43.9239 40.1925 45.4752 41.7014 47.3892 41.7014C49.3026 41.7014 50.8546 40.1925 50.8546 38.3321ZM42.7369 55.4596H53.8867C54.8438 55.4596 55.1742 54.8413 54.6266 54.0781L50.8383 48.8169C50.2896 48.0548 49.2991 47.9728 48.6269 48.6349L47.1639 50.0753C46.4911 50.7374 45.4746 50.6745 44.893 49.9355L38.9129 42.3371C38.3313 41.5982 37.5101 41.6723 37.0792 42.5028L31.132 53.9558C30.7006 54.7864 31.1268 55.4596 32.0839 55.4596H42.7369Z"
          fill="white"/>
    <defs>
        <linearGradient id="paint0_linear" x1="-29.7501" y1="37.016" x2="36.9115" y2="114.667"
                        gradientUnits="userSpaceOnUse">
            <stop stop-color="#F7CEDA"/>
            <stop offset="1" stop-color="#6A45B8"/>
        </linearGradient>
    </defs>
</svg>
