<svg width="56" height="56" viewBox="0 0 56 56" fill="none" xmlns="http://www.w3.org/2000/svg">
    <path fill-rule="evenodd" clip-rule="evenodd"
          d="M33.6933 3.82664C38.7963 -1.27555 47.0698 -1.27555 52.1728 3.82664C57.2758 8.92883 57.2758 17.2011 52.1725 22.3033L40.2915 34.1825C38.6203 35.854 36.5269 37.0408 34.2344 37.6166H34.1317L33.5904 37.7285L33.2917 37.7845L32.6477 37.8778H32.3305C32.1897 37.8778 32.0585 37.8935 31.9329 37.9085C31.842 37.9194 31.754 37.9299 31.6678 37.9338L31.1078 37.9991H31.0518H30.3985C29.9329 37.9805 29.4687 37.9369 29.0078 37.8684C28.6253 37.8031 28.2519 37.7284 27.8786 37.6352L27.3279 37.4859C27.1319 37.4299 26.9266 37.3646 26.7306 37.2899C26.6588 37.2626 26.5858 37.2365 26.5125 37.2103C26.3855 37.1649 26.2576 37.1192 26.1333 37.066C26.068 37.038 26.0027 37.011 25.9373 36.984C25.8067 36.9301 25.676 36.8762 25.5453 36.814C24.1563 36.1704 22.8924 35.2859 21.8122 34.2012C21.0555 33.4428 20.6612 32.3959 20.7295 31.327C20.7895 30.426 21.1742 29.5773 21.8122 28.9381C23.2855 27.5516 25.5838 27.5516 27.0573 28.9381C29.2436 31.1214 32.7854 31.1214 34.9718 28.9381L38.033 25.896L38.1077 25.812L46.8621 17.0683C49.0502 14.8805 49.0502 11.3334 46.8621 9.14569C44.6741 6.95792 41.1265 6.95792 38.9384 9.14569L31.9106 16.1631C31.6444 16.431 31.2427 16.5122 30.8933 16.3684C29.0004 15.5944 26.9745 15.1982 24.9295 15.2019H24.5842C24.2029 15.2092 23.8555 14.9838 23.7069 14.6327C23.5565 14.2825 23.6341 13.8763 23.9029 13.6062L33.6933 3.82664ZM31.9761 20.0637C32.7702 20.5686 33.5059 21.1601 34.1693 21.8274C34.926 22.5857 35.3202 23.6325 35.2521 24.7015C35.1877 25.596 34.8033 26.4374 34.1694 27.0718C32.6961 28.4583 30.3977 28.4583 28.9243 27.0718C26.7379 24.8885 23.1961 24.8885 21.0098 27.0718L9.09143 38.9789C6.90334 41.1667 6.90334 44.7137 9.09143 46.9015C11.2795 49.0892 14.8271 49.0892 17.0152 46.9015L24.0617 39.8468C24.3279 39.5788 24.7295 39.4977 25.079 39.6415C26.9755 40.4127 29.0047 40.8058 31.0521 40.7986H31.4254C31.9409 40.7956 32.3612 41.211 32.3641 41.7263C32.3656 41.977 32.2661 42.2178 32.0881 42.3943L22.2884 52.1925C19.8421 54.6412 16.5193 56.0119 13.0579 55.9998C5.84156 55.9953 -0.00459092 50.1424 2.70523e-06 42.9272C0.00219014 39.4696 1.37525 36.1538 3.81818 33.7066L15.6898 21.8274C18.1369 19.3722 21.4628 17.9949 24.9296 18.0014C27.4273 18.0014 29.8726 18.717 31.9761 20.0637Z"
          fill="url(#paint0_linear)"/>
    <defs>
        <linearGradient id="paint0_linear" x1="-27.6577" y1="17.0746" x2="13.923" y2="72.3899"
                        gradientUnits="userSpaceOnUse">
            <stop stop-color="#B5EDF5"/>
            <stop offset="1" stop-color="#85CDFE"/>
        </linearGradient>
    </defs>
</svg>
