<svg width="67" height="61" viewBox="0 0 67 61" fill="none" xmlns="http://www.w3.org/2000/svg">
    <path fill-rule="evenodd" clip-rule="evenodd"
          d="M3.63 0C1.62521 0 0 1.6252 0 3.63V9.69231H67V3.63C67 1.62521 65.3748 0 63.37 0H3.63ZM6.7 5.14904C6.7 5.98543 6.01825 6.66346 5.17727 6.66346C4.33629 6.66346 3.65455 5.98543 3.65455 5.14904C3.65455 4.31265 4.33629 3.63462 5.17727 3.63462C6.01825 3.63462 6.7 4.31265 6.7 5.14904ZM10.05 6.66346C10.891 6.66346 11.5727 5.98543 11.5727 5.14904C11.5727 4.31265 10.891 3.63462 10.05 3.63462C9.20902 3.63462 8.52727 4.31265 8.52727 5.14904C8.52727 5.98543 9.20902 6.66346 10.05 6.66346ZM16.4455 5.14904C16.4455 5.98543 15.7637 6.66346 14.9227 6.66346C14.0817 6.66346 13.4 5.98543 13.4 5.14904C13.4 4.31265 14.0817 3.63462 14.9227 3.63462C15.7637 3.63462 16.4455 4.31265 16.4455 5.14904ZM0 11.3271H67V57.3702C67 59.375 65.3748 61.0002 63.37 61.0002H3.63C1.62521 61.0002 0 59.375 0 57.3702V11.3271ZM40.4698 19.8079C43.1975 19.8079 45.4097 21.9485 45.4097 24.5876C45.4097 27.2268 43.1974 29.3673 40.4698 29.3673C37.7412 29.3673 35.5298 27.2268 35.5298 24.5876C35.5298 21.9485 37.7412 19.8079 40.4698 19.8079ZM49.7322 48.8848H33.8378H18.6515C17.2872 48.8848 16.6796 47.9297 17.2946 46.7514L25.7724 30.5042C26.3867 29.326 27.5574 29.2209 28.3865 30.2691L36.9113 41.0483C37.7403 42.0967 39.1894 42.1859 40.1485 41.2466L42.234 39.2033C43.1924 38.264 44.6044 38.3803 45.3865 39.4613L50.7868 46.925C51.5674 48.0077 51.0965 48.8848 49.7322 48.8848Z"
          fill="url(#paint0_linear)"/>
    <defs>
        <linearGradient id="paint0_linear" x1="3" y1="-1.27858e-06" x2="64" y2="61" gradientUnits="userSpaceOnUse">
            <stop stop-color="#7547C9"/>
            <stop offset="1" stop-color="#8B9BED"/>
        </linearGradient>
    </defs>
</svg>
