<svg width="66" height="66" viewBox="0 0 66 66" fill="none" xmlns="http://www.w3.org/2000/svg">
    <path fill-rule="evenodd" clip-rule="evenodd"
          d="M45.6923 0C34.5231 0 25.3846 5.83846 25.3846 17.7692C25.3846 22.8462 27.1615 26.9077 29.9538 29.9538L25.3846 40.6154L36.5538 34.0154C39.3462 35.0308 42.3923 35.5385 45.6923 35.5385C56.8615 35.5385 66 29.7 66 17.7692C66 5.83846 56.8615 0 45.6923 0ZM35.5385 20.3077C34.0154 20.3077 33 19.2923 33 17.7692C33 16.2462 34.0154 15.2308 35.5385 15.2308C37.0615 15.2308 38.0769 16.2462 38.0769 17.7692C38.0769 19.2923 37.0615 20.3077 35.5385 20.3077ZM43.1538 17.7692C43.1538 19.2923 44.1692 20.3077 45.6923 20.3077C47.2154 20.3077 48.2308 19.2923 48.2308 17.7692C48.2308 16.2462 47.2154 15.2308 45.6923 15.2308C44.1692 15.2308 43.1538 16.2462 43.1538 17.7692ZM55.8462 20.3077C54.3231 20.3077 53.3077 19.2923 53.3077 17.7692C53.3077 16.2462 54.3231 15.2308 55.8462 15.2308C57.3692 15.2308 58.3846 16.2462 58.3846 17.7692C58.3846 19.2923 57.3692 20.3077 55.8462 20.3077ZM35.7923 50.5154L45.9462 53.0538C47.2154 53.3077 47.9769 54.5769 47.9769 55.8462L46.4538 66C1.52308 60.9231 0 19.5462 0 19.5462L10.1538 18.0231C11.4231 18.0231 12.6923 18.7846 13.2 20.0538L15.7385 30.2077C15.9923 31.4769 15.7385 32.7462 15.2308 33.7615L13.2 38.0769C12.6923 38.8385 12.6923 39.6 13.2 40.3615C16.2462 46.2 19.5462 49.5 25.6385 52.8C26.4 53.0538 27.1615 53.0538 27.9231 52.8L32.2385 51.0231C33.2538 50.2615 34.5231 50.2615 35.7923 50.5154Z"
          fill="url(#paint0_linear)"/>
    <defs>
        <linearGradient id="paint0_linear" x1="0" y1="0" x2="0" y2="66" gradientUnits="userSpaceOnUse">
            <stop stop-color="#CBEFA3"/>
            <stop offset="1" stop-color="#92DE9B"/>
        </linearGradient>
    </defs>
</svg>
