<svg width="56" height="56" viewBox="0 0 56 56" fill="none" xmlns="http://www.w3.org/2000/svg">
    <path fill-rule="evenodd" clip-rule="evenodd"
          d="M54.3594 0H1.64062C0.735 0 0 0.737882 0 1.64706V24.7059C0 25.6151 0.735 26.3529 1.64062 26.3529H25.6966L25.0327 23.7561C23.9909 19.6776 28.202 16.2407 31.9627 18.0891L48.7944 26.3529H54.3594C55.265 26.3529 56 25.6151 56 24.7059V1.64706C56 0.737882 55.265 0 54.3594 0ZM16.4062 18.1176C16.4062 19.0268 15.6713 19.7647 14.7656 19.7647C13.86 19.7647 13.125 19.0268 13.125 18.1176V16.4706H9.84375V18.1176C9.84375 19.0268 9.10875 19.7647 8.20312 19.7647C7.2975 19.7647 6.5625 19.0268 6.5625 18.1176V11.5294C6.5625 8.80518 8.77078 6.58824 11.4844 6.58824C14.198 6.58824 16.4062 8.80518 16.4062 11.5294V18.1176ZM21.3281 19.7647H22.9688C26.5869 19.7647 29.5312 16.8088 29.5312 13.1765C29.5312 9.54416 26.5869 6.58824 22.9688 6.58824H21.3281C20.4225 6.58824 19.6875 7.32612 19.6875 8.23529V18.1176C19.6875 19.0268 20.4225 19.7647 21.3281 19.7647ZM47.5781 18.1176H34.4531C33.5475 18.1176 32.8125 17.3798 32.8125 16.4706C32.8125 15.5614 33.5475 14.8235 34.4531 14.8235H47.5781C48.4837 14.8235 49.2188 15.5614 49.2188 16.4706C49.2188 17.3798 48.4837 18.1176 47.5781 18.1176ZM34.4531 11.5294H47.5781C48.4837 11.5294 49.2188 10.7915 49.2188 9.88235C49.2188 8.97318 48.4837 8.23529 47.5781 8.23529H34.4531C33.5475 8.23529 32.8125 8.97318 32.8125 9.88235C32.8125 10.7915 33.5475 11.5294 34.4531 11.5294ZM11.4844 9.88235C10.5797 9.88235 9.84375 10.6212 9.84375 11.5294V13.1765H13.125V11.5294C13.125 10.6212 12.389 9.88235 11.4844 9.88235ZM18.0469 29.6471C18.9529 29.6471 19.6875 30.3845 19.6875 31.2941V54.3529C19.6875 55.2626 18.9529 56 18.0469 56H1.64062C0.734563 56 0 55.2626 0 54.3529V31.2941C0 30.3845 0.734563 29.6471 1.64062 29.6471H18.0469ZM52.2933 29.6471H54.3594C55.265 29.6471 56 30.3849 56 31.2941V54.3529C56 55.2621 55.265 56 54.3594 56H24.6094C23.7038 56 22.9688 55.2621 22.9688 54.3529V31.2941C22.9688 30.3849 23.7038 29.6471 24.6094 29.6471H26.5387L30.0366 43.3341C30.9104 46.7521 34.9808 48.1697 37.7748 46.0452L38.1587 46.5075C39.9143 48.6192 43.0258 48.8733 45.103 47.1278L50.7598 42.3613C52.8336 40.6154 53.1092 37.4969 51.3756 35.4107L50.9786 34.933C52.4518 33.5784 52.9402 31.4982 52.2933 29.6471ZM26.25 13.1765C26.25 14.9928 24.778 16.4706 22.9688 16.4706V9.88235C24.778 9.88235 26.25 11.3601 26.25 13.1765ZM30.5205 21.0483L48.372 29.8132C49.4377 30.3363 49.6139 31.7907 48.7048 32.5553L46.365 34.5232L48.8562 37.5213C49.4354 38.2184 49.3437 39.2546 48.651 39.8381L42.9935 44.604C42.2966 45.191 41.2593 45.0958 40.679 44.3974L38.1922 41.4046L35.8577 43.368C34.9332 44.1455 33.5147 43.6871 33.215 42.5149L28.2105 22.9373C27.8634 21.5786 29.2659 20.4323 30.5205 21.0483Z"
          fill="url(#paint0_linear)"/>
    <defs>
        <linearGradient id="paint0_linear" x1="0" y1="0" x2="0" y2="56" gradientUnits="userSpaceOnUse">
            <stop stop-color="#8192BC"/>
            <stop offset="1" stop-color="#5F6895"/>
        </linearGradient>
    </defs>
</svg>
