<svg width="84" height="84" viewBox="0 0 84 84" fill="none" xmlns="http://www.w3.org/2000/svg">
    <rect width="84" height="84" rx="14.7" fill="url(#paint0_linear)"/>
    <path fill-rule="evenodd" clip-rule="evenodd"
          d="M61.7988 22H23.2012C22.5381 22 22 22.5271 22 23.1765V39.6471C22 40.2965 22.5381 40.8235 23.2012 40.8235H40.8136L40.3275 38.9686C39.5647 36.0555 42.6479 33.6005 45.4012 34.9208L57.7245 40.8235H61.7988C62.4619 40.8235 63 40.2965 63 39.6471V23.1765C63 22.5271 62.4619 22 61.7988 22ZM34.0117 34.9412C34.0117 35.5906 33.4736 36.1176 32.8105 36.1176C32.1475 36.1176 31.6094 35.5906 31.6094 34.9412V33.7647H29.207V34.9412C29.207 35.5906 28.6689 36.1176 28.0059 36.1176C27.3428 36.1176 26.8047 35.5906 26.8047 34.9412V30.2353C26.8047 28.2894 28.4215 26.7059 30.4082 26.7059C32.3949 26.7059 34.0117 28.2894 34.0117 30.2353V34.9412ZM37.6152 36.1176H38.8164C41.4654 36.1176 43.6211 34.0063 43.6211 31.4118C43.6211 28.8173 41.4654 26.7059 38.8164 26.7059H37.6152C36.9522 26.7059 36.4141 27.2329 36.4141 27.8824V34.9412C36.4141 35.5906 36.9522 36.1176 37.6152 36.1176ZM56.834 34.9412H47.2246C46.5616 34.9412 46.0234 34.4141 46.0234 33.7647C46.0234 33.1153 46.5616 32.5882 47.2246 32.5882H56.834C57.497 32.5882 58.0352 33.1153 58.0352 33.7647C58.0352 34.4141 57.497 34.9412 56.834 34.9412ZM47.2246 30.2353H56.834C57.497 30.2353 58.0352 29.7082 58.0352 29.0588C58.0352 28.4094 57.497 27.8824 56.834 27.8824H47.2246C46.5616 27.8824 46.0234 28.4094 46.0234 29.0588C46.0234 29.7082 46.5616 30.2353 47.2246 30.2353ZM30.4082 29.0588C29.7459 29.0588 29.207 29.5866 29.207 30.2353V31.4118H31.6094V30.2353C31.6094 29.5866 31.0705 29.0588 30.4082 29.0588ZM35.2129 43.1765C35.8763 43.1765 36.4141 43.7032 36.4141 44.3529V60.8235C36.4141 61.4733 35.8763 62 35.2129 62H23.2012C22.5378 62 22 61.4733 22 60.8235V44.3529C22 43.7032 22.5378 43.1765 23.2012 43.1765H35.2129ZM60.2862 43.1765H61.7988C62.4619 43.1765 63 43.7035 63 44.3529V60.8235C63 61.4729 62.4619 62 61.7988 62H40.0176C39.3545 62 38.8164 61.4729 38.8164 60.8235V44.3529C38.8164 43.7035 39.3545 43.1765 40.0176 43.1765H41.4302L43.9911 52.9529C44.6308 55.3944 47.6109 56.4069 49.6566 54.8894L49.9377 55.2196C51.223 56.728 53.5011 56.9095 55.0218 55.6627L59.1635 52.258C60.6817 51.011 60.8835 48.7835 59.6143 47.2933L59.3236 46.9522C60.4022 45.9845 60.7598 44.4987 60.2862 43.1765ZM38.8164 33.7647V29.0588C40.1411 29.0588 41.2188 30.1144 41.2188 31.4118C41.2188 32.7092 40.1411 33.7647 38.8164 33.7647ZM44.3454 37.0345L57.4152 43.2951C58.1955 43.6688 58.3245 44.7076 57.6589 45.2538L55.9458 46.6595L57.7697 48.8009C58.1938 49.2988 58.1266 50.039 57.6195 50.4558L53.4773 53.86C52.9672 54.2793 52.2077 54.2113 51.7828 53.7124L49.9622 51.5747L48.253 52.9772C47.5761 53.5325 46.5375 53.2051 46.3181 52.3678L42.6542 38.3838C42.4 37.4133 43.4268 36.5945 44.3454 37.0345Z"
          fill="white"/>
    <defs>
        <linearGradient id="paint0_linear" x1="0" y1="0" x2="0" y2="84" gradientUnits="userSpaceOnUse">
            <stop stop-color="#8192BC"/>
            <stop offset="1" stop-color="#5F6895"/>
        </linearGradient>
    </defs>
</svg>
