<svg width="61" height="15" viewBox="0 0 61 15" fill="none" xmlns="http://www.w3.org/2000/svg">
<path d="M7.5 15C11.6421 15 15 11.6421 15 7.5C15 3.35786 11.6421 0 7.5 0C3.35786 0 0 3.35786 0 7.5C0 11.6421 3.35786 15 7.5 15Z" fill="#5585D9"/>
<path d="M30.5 15C34.6421 15 38 11.6421 38 7.5C38 3.35786 34.6421 0 30.5 0C26.3579 0 23 3.35786 23 7.5C23 11.6421 26.3579 15 30.5 15Z" fill="#5585D9"/>
<path d="M53.5 15C57.6421 15 61 11.6421 61 7.5C61 3.35786 57.6421 0 53.5 0C49.3579 0 46 3.35786 46 7.5C46 11.6421 49.3579 15 53.5 15Z" fill="#5585D9"/>
</svg>
