<svg width="73" height="73" viewBox="0 0 73 73" fill="none" xmlns="http://www.w3.org/2000/svg">
    <path d="M41.842 44.7545H39.158C38.2126 44.7545 37.4399 43.9754 37.4399 43.022C37.4399 42.0687 38.2126 41.2896 39.158 41.2896H43.8854C44.5564 41.2896 45.1054 40.736 45.1054 40.0595C45.1054 39.3829 44.5564 38.8293 43.8854 38.8293H41.72V37.2301C41.72 36.5536 41.171 36 40.5 36C39.829 36 39.28 36.5536 39.28 37.2301V38.8293H39.158C36.8604 38.8293 35 40.7155 35 43.022C35 45.3388 36.8706 47.2148 39.158 47.2148H41.842C42.7874 47.2148 43.5601 47.9938 43.5601 48.9472C43.5601 49.9006 42.7874 50.6797 41.842 50.6797H37.0231C36.3521 50.6797 35.8031 51.2332 35.8031 51.9098C35.8031 52.5864 36.3521 53.1399 37.0231 53.1399H39.28V54.7699C39.28 55.4464 39.829 56 40.5 56C41.171 56 41.72 55.4464 41.72 54.7699V53.1399H41.8623C41.8725 53.1399 41.8826 53.1399 41.8928 53.1399C44.1599 53.1092 46 51.2435 46 48.9472C46 46.6304 44.1294 44.7545 41.842 44.7545Z"
          fill="#FF6393"/>
    <path fill-rule="evenodd" clip-rule="evenodd"
          d="M68.8176 0H43.1568C41.2276 0 39.6576 1.56997 39.6576 3.4992V18.6624C39.6576 16.0893 37.5651 13.9968 34.992 13.9968C34.1382 13.9968 33.3485 14.2441 32.6592 14.6453V9.3312C32.6592 6.75812 30.5667 4.6656 27.9936 4.6656C27.1398 4.6656 26.3501 4.91288 25.6608 5.31412V4.6656C25.6608 2.09252 23.5683 0 20.9952 0C18.4221 0 16.3296 2.09252 16.3296 4.6656V5.31412C15.6403 4.91288 14.8506 4.6656 13.9968 4.6656C11.4237 4.6656 9.3312 6.75812 9.3312 9.3312V25.7903C7.84754 24.2728 5.78301 23.328 3.4992 23.328C1.56997 23.328 0 24.898 0 26.8272V42.9014C0 49.9604 2.49143 56.7955 6.9984 62.2181V72.3168H34.992V62.0851L35.0092 62.0492C35.0198 62.0269 35.0304 62.0044 35.041 61.9825C36.8547 62.6205 38.7956 62.9856 40.824 62.9856C50.4713 62.9856 58.32 55.1369 58.32 45.4896C58.32 35.8423 50.4713 27.9936 40.824 27.9936C40.5065 27.9936 40.195 28.0155 39.8834 28.0375C39.8082 28.0428 39.7329 28.0481 39.6576 28.0531V19.8288C39.6576 21.758 41.2276 23.328 43.1568 23.328H55.9872V28.7868C55.9872 30.2786 57.2014 31.4928 58.6933 31.4928C59.5669 31.4928 60.3904 31.0694 60.8954 30.3591L65.9191 23.328H68.8176C70.7468 23.328 72.3168 21.758 72.3168 19.8288V3.4992C72.3168 1.56997 70.7468 0 68.8176 0ZM27.9936 6.9984C29.2801 6.9984 30.3264 8.04466 30.3264 9.3312V30.3264H25.6608V9.3312C25.6608 8.04466 26.7071 6.9984 27.9936 6.9984ZM20.9952 2.3328C19.7087 2.3328 18.6624 3.37906 18.6624 4.6656V30.4909C19.4357 30.3917 20.2137 30.3264 20.9952 30.3264H23.328V4.6656C23.328 3.37906 22.2817 2.3328 20.9952 2.3328ZM11.664 9.3312C11.664 8.04466 12.7103 6.9984 13.9968 6.9984C15.2833 6.9984 16.3296 8.04466 16.3296 9.3312V30.9329C14.6966 31.3563 13.1267 32.0048 11.664 32.847V9.3312ZM3.4992 25.6608C2.85535 25.6608 2.3328 26.1845 2.3328 26.8272V42.9014C2.3328 49.3795 4.59328 55.6618 8.70718 60.6516L32.132 60.6528C26.8797 57.6307 23.328 51.9725 23.328 45.4896C23.328 40.4181 25.5103 35.8575 28.9687 32.6592H20.9952C17.6745 32.6592 14.3887 33.709 11.664 35.6044V38.0083L11.8635 38.2066C14.7445 41.0876 16.3296 44.9157 16.3296 48.9888H13.9968C13.9968 45.5386 12.6543 42.296 10.2153 39.8571L10.0159 39.6588C9.57381 39.2167 9.3312 38.6312 9.3312 38.0083V31.4928C9.3312 28.277 6.71497 25.6608 3.4992 25.6608ZM9.3312 69.984V62.9856H32.6592V69.984H9.3312ZM40.824 60.6528C49.1848 60.6528 55.9872 53.8504 55.9872 45.4896C55.9872 37.1288 49.1848 30.3264 40.824 30.3264C32.4632 30.3264 25.6608 37.1288 25.6608 45.4896C25.6608 53.8504 32.4632 60.6528 40.824 60.6528ZM32.6592 30.0278V18.6624C32.6592 17.3759 33.7055 16.3296 34.992 16.3296C36.2785 16.3296 37.3248 17.3759 37.3248 18.6624V28.3459C35.672 28.6829 34.1079 29.2591 32.6592 30.0278ZM68.8176 20.9952C69.4615 20.9952 69.984 20.4715 69.984 19.8288V3.4992C69.984 2.85651 69.4615 2.3328 68.8176 2.3328H43.1568C42.513 2.3328 41.9904 2.85651 41.9904 3.4992V19.8288C41.9904 20.4715 42.513 20.9952 43.1568 20.9952H58.32V28.7868C58.32 29.1133 58.8087 29.2685 58.9965 29.0049L64.7177 20.9952H68.8176Z"
          fill="#5F2DAD"/>
    <path fill-rule="evenodd" clip-rule="evenodd"
          d="M55.9872 15.1633C55.9872 13.234 57.5572 11.6641 59.4864 11.6641C61.4156 11.6641 62.9856 13.234 62.9856 15.1633C62.9856 17.0925 61.4156 18.6625 59.4864 18.6625C57.5572 18.6625 55.9872 17.0925 55.9872 15.1633ZM58.32 15.1633C58.32 15.8059 58.8425 16.3297 59.4864 16.3297C60.1303 16.3297 60.6528 15.8059 60.6528 15.1633C60.6528 14.5206 60.1303 13.9969 59.4864 13.9969C58.8425 13.9969 58.32 14.5206 58.32 15.1633Z"
          fill="#85DCF4"/>
    <path d="M59.4864 11.3141C57.3639 11.3141 55.6372 13.0407 55.6372 15.1633H56.3372C56.3372 13.4273 57.7505 12.0141 59.4864 12.0141V11.3141ZM63.3356 15.1633C63.3356 13.0407 61.6089 11.3141 59.4864 11.3141V12.0141C61.2223 12.0141 62.6356 13.4273 62.6356 15.1633H63.3356ZM59.4864 19.0125C61.6089 19.0125 63.3356 17.2858 63.3356 15.1633H62.6356C62.6356 16.8992 61.2223 18.3125 59.4864 18.3125V19.0125ZM55.6372 15.1633C55.6372 17.2858 57.3639 19.0125 59.4864 19.0125V18.3125C57.7505 18.3125 56.3372 16.8992 56.3372 15.1633H55.6372ZM59.4864 15.9797C59.0361 15.9797 58.67 15.6129 58.67 15.1633H57.97C57.97 15.999 58.649 16.6797 59.4864 16.6797V15.9797ZM60.3028 15.1633C60.3028 15.6129 59.9367 15.9797 59.4864 15.9797V16.6797C60.3238 16.6797 61.0028 15.999 61.0028 15.1633H60.3028ZM59.4864 14.3469C59.9367 14.3469 60.3028 14.7136 60.3028 15.1633H61.0028C61.0028 14.3275 60.3238 13.6469 59.4864 13.6469V14.3469ZM58.67 15.1633C58.67 14.7136 59.0361 14.3469 59.4864 14.3469V13.6469C58.649 13.6469 57.97 14.3275 57.97 15.1633H58.67Z"
          fill="white"/>
    <path fill-rule="evenodd" clip-rule="evenodd"
          d="M55.9872 8.16473C55.9872 10.094 54.4172 11.6639 52.488 11.6639C50.5588 11.6639 48.9888 10.094 48.9888 8.16473C48.9888 6.2355 50.5588 4.66553 52.488 4.66553C54.4172 4.66553 55.9872 6.2355 55.9872 8.16473ZM53.6544 8.16473C53.6544 7.52204 53.1319 6.99833 52.488 6.99833C51.8442 6.99833 51.3216 7.52204 51.3216 8.16473C51.3216 8.80741 51.8442 9.33113 52.488 9.33113C53.1319 9.33113 53.6544 8.80741 53.6544 8.16473Z"
          fill="#85DCF4"/>
    <path d="M52.488 12.0139C54.6105 12.0139 56.3372 10.2873 56.3372 8.16473H55.6372C55.6372 9.90065 54.2239 11.3139 52.488 11.3139V12.0139ZM48.6388 8.16473C48.6388 10.2873 50.3655 12.0139 52.488 12.0139V11.3139C50.7521 11.3139 49.3388 9.90065 49.3388 8.16473H48.6388ZM52.488 4.31553C50.3655 4.31553 48.6388 6.0422 48.6388 8.16473H49.3388C49.3388 6.4288 50.7521 5.01553 52.488 5.01553V4.31553ZM56.3372 8.16473C56.3372 6.0422 54.6105 4.31553 52.488 4.31553V5.01553C54.2239 5.01553 55.6372 6.4288 55.6372 8.16473H56.3372ZM52.488 7.34833C52.9383 7.34833 53.3044 7.71511 53.3044 8.16473H54.0044C54.0044 7.32897 53.3254 6.64833 52.488 6.64833V7.34833ZM51.6716 8.16473C51.6716 7.71511 52.0377 7.34833 52.488 7.34833V6.64833C51.6506 6.64833 50.9716 7.32897 50.9716 8.16473H51.6716ZM52.488 8.98113C52.0377 8.98113 51.6716 8.61434 51.6716 8.16473H50.9716C50.9716 9.00049 51.6506 9.68113 52.488 9.68113V8.98113ZM53.3044 8.16473C53.3044 8.61434 52.9383 8.98113 52.488 8.98113V9.68113C53.3254 9.68113 54.0044 9.00049 54.0044 8.16473H53.3044Z"
          fill="white"/>
    <path d="M49.3245 16.6753L60.9866 5.01317L62.6359 6.66246L50.9738 18.3246L49.3245 16.6753Z" fill="#85DCF4"
          stroke="white" stroke-width="0.7"/>
</svg>
