<svg width="80" height="63" viewBox="0 0 80 63" fill="none" xmlns="http://www.w3.org/2000/svg">
    <path fill-rule="evenodd" clip-rule="evenodd"
          d="M50.6635 5.33294C50.6635 2.39188 53.0552 0 55.9964 0C58.9376 0 61.3294 2.39172 61.3294 5.33294V53.33C61.3294 56.2711 58.9375 58.663 55.9964 58.663C53.0554 58.663 50.6635 56.2712 50.6635 53.33V52.3648L19.5028 39.9015C18.9975 39.6989 18.6655 39.2095 18.6655 38.6642V19.9987C18.6655 19.4534 18.9975 18.9643 19.5028 18.7602L50.6635 6.29694V5.33294ZM55.9964 55.9964C57.4671 55.9964 58.663 54.8004 58.663 53.3299V5.33294C58.663 3.86225 57.4671 2.66639 55.9964 2.66639C54.5257 2.66639 53.3299 3.86241 53.3299 5.33294V7.19954C53.3299 7.74482 52.998 8.234 52.4913 8.43805L21.3319 20.9013V37.7615L52.4913 50.2248C52.9979 50.4274 53.3299 50.9166 53.3299 51.4633V53.3299C53.3299 54.8006 54.5257 55.9964 55.9964 55.9964Z"
          fill="#6534B0"/>
    <path fill-rule="evenodd" clip-rule="evenodd"
          d="M10.666 18.6655H19.9987C20.7346 18.6655 21.3319 19.2628 21.3319 19.9989V38.6644C21.3319 39.4017 20.7346 39.9976 19.9987 39.9976H10.666C4.78501 39.9976 0 35.2126 0 29.3316C0 23.4505 4.78501 18.6655 10.666 18.6655ZM10.666 37.3311H18.6655V21.3321H10.666C6.25429 21.3321 2.66655 24.9198 2.66655 29.3316C2.66655 33.7433 6.25429 37.3311 10.666 37.3311Z"
          fill="#6534B0"/>
    <path fill-rule="evenodd" clip-rule="evenodd"
          d="M60.4175 21.3999L68.417 24.0665C68.9623 24.2491 69.3288 24.757 69.329 25.3315V33.331C69.329 33.9057 68.9623 34.415 68.417 34.595L60.4175 37.2616C60.2802 37.3083 60.1376 37.3309 59.9962 37.3309C59.7202 37.3309 59.4468 37.2456 59.2162 37.0803C58.8683 36.8283 58.663 36.4257 58.663 35.9977V22.6653C58.663 22.2372 58.8683 21.8346 59.2162 21.584C59.5656 21.3332 60.0096 21.2652 60.4175 21.3999ZM61.3295 34.1471L66.6625 32.3698V26.2916L61.3295 24.5144V34.1471Z"
          fill="#6534B0"/>
    <path fill-rule="evenodd" clip-rule="evenodd"
          d="M25.2025 53.9806L26.541 55.3205C27.1476 55.9339 27.4756 56.7392 27.4701 57.594C27.4648 58.4499 27.1275 59.2498 26.5196 59.8512C26.0929 60.2712 25.557 60.5644 24.9703 60.6964L24.9303 60.7044L14.9176 62.6376C14.8323 62.6549 14.7484 62.6629 14.6644 62.6629C14.0577 62.6629 13.5124 62.247 13.3671 61.635L8.03417 38.9697C7.94074 38.5724 8.03417 38.1551 8.28744 37.8351C8.5407 37.5178 8.92474 37.3311 9.33268 37.3311H19.9989C20.6107 37.3311 21.1441 37.7484 21.2921 38.3416L25.2025 53.9806ZM24.3997 58.091C24.4931 58.0671 24.5784 58.0204 24.6464 57.9524C24.7825 57.8177 24.8037 57.6591 24.805 57.5777C24.805 57.4937 24.7864 57.3351 24.6517 57.2004L23.0571 55.6058C22.8865 55.4352 22.7651 55.2205 22.7065 54.9859L18.9574 39.9974H11.0165L15.6709 59.7776L24.3997 58.091Z"
          fill="#6534B0"/>
    <rect x="71.9954" y="27.998" width="7.99949" height="2.66655" fill="#FF6393"/>
    <rect x="71.3068" y="16.1924" width="7.77383" height="2.66632" transform="rotate(-30.9716 71.3068 16.1924)"
          fill="#FF6393"/>
    <rect x="71.3187" y="42.4731" width="2.66657" height="7.77425" transform="rotate(-59.0362 71.3187 42.4731)"
          fill="#FF6393"/>
    <rect x="50.6635" y="6.66602" width="2.66655" height="45.3304" fill="#6534B0"/>
    <rect x="13.3324" y="23.9985" width="2.66655" height="5.33294" fill="#85DCF4"/>
    <rect x="7.99949" y="23.9985" width="2.66655" height="5.33294" fill="#85DCF4"/>
</svg>
