<svg width="57" height="79" viewBox="0 0 57 79" fill="none" xmlns="http://www.w3.org/2000/svg">
    <path fill-rule="evenodd" clip-rule="evenodd"
          d="M25.2607 16.9739L42.2827 25.3522C44.1761 26.2909 45.5812 27.9931 46.1273 30.031L54.2388 60.3038C55.4891 64.9698 52.7112 69.7812 48.0452 71.0314L27.3152 76.586C22.6492 77.8363 17.8378 75.0584 16.5876 70.3924L8.47599 40.1196C7.92995 38.0817 8.29568 35.905 9.46608 34.1453L14.1552 27.1347C12.992 25.5484 12.1107 23.7209 11.576 21.7252C10.627 18.1835 10.8729 14.5477 12.261 11.4643C13.7071 8.26002 16.2003 6.04045 19.2922 5.21197C25.5323 3.53994 32.2392 8.22003 34.2314 15.6547C34.4799 16.5823 33.9243 17.5446 32.9967 17.7931C32.0692 18.0417 31.1069 17.4861 30.8583 16.5585C29.3633 10.979 24.5809 7.41004 20.196 8.58498C18.1441 9.13479 16.4477 10.6739 15.4475 12.9001C14.3893 15.2473 14.2109 18.0668 14.949 20.8214C15.254 21.9598 15.7023 23.0146 16.2621 23.9793L20.0044 18.3823C20.5657 17.554 21.3992 16.9541 22.3689 16.6943C23.3386 16.4344 24.3604 16.5372 25.2607 16.9739ZM47.1414 67.6584C49.9522 66.9053 51.619 64.0184 50.8658 61.2076L50.8518 61.2113L42.7402 30.9385C42.454 29.8704 41.7153 28.9687 40.7259 28.4807L23.7039 20.1024C23.5294 20.0135 23.3673 20.0269 23.2549 20.057C23.1424 20.0871 22.9954 20.1566 22.8887 20.3208L18.5439 26.8174C18.7982 27.0354 19.0627 27.2357 19.3272 27.4359L19.3273 27.436C21.3066 28.8638 23.5313 29.3523 25.5972 28.7987C26.5248 28.5502 27.4871 29.1057 27.7356 30.0333C27.9842 30.9609 27.4286 31.9232 26.501 32.1717C23.4091 33.0002 20.1401 32.3246 17.2856 30.2726L16.5989 29.7336L12.3504 36.0839C11.7376 37.0012 11.5488 38.1515 11.835 39.2196L19.9465 69.4924C20.6997 72.3032 23.5865 73.9699 26.3974 73.2168L47.1414 67.6584Z"
          fill="#5F2DAD"/>
    <path d="M32.4112 46.6954L28.7009 47.6896C27.3938 48.0398 26.0395 47.2579 25.6893 45.9509C25.3391 44.6438 26.121 43.2895 27.428 42.9393L33.9632 41.1882C34.8908 40.9396 35.4464 39.9774 35.1979 39.0498C34.9493 38.1222 33.987 37.5666 33.0594 37.8152L30.0659 38.6173L29.4784 36.4248C29.2299 35.4973 28.2676 34.9417 27.34 35.1902C26.4124 35.4388 25.8569 36.4011 26.1054 37.3286L26.6929 39.5211L26.5242 39.5663C23.348 40.4174 21.469 43.6925 22.3163 46.8547C23.1674 50.0309 26.4425 51.9099 29.6047 51.0626L33.315 50.0685C34.622 49.7182 35.9764 50.5002 36.3266 51.8072C36.6768 53.1142 35.8949 54.4686 34.5878 54.8188L27.9261 56.6038C26.9986 56.8523 26.443 57.8146 26.6915 58.7422C26.9401 59.6698 27.9024 60.2253 28.8299 59.9768L31.95 59.1408L32.5487 61.3754C32.7973 62.303 33.7596 62.8586 34.6871 62.61C35.6147 62.3615 36.1703 61.3992 35.9217 60.4716L35.323 58.237L35.5197 58.1843C35.5338 58.1805 35.5478 58.1767 35.5619 58.173C38.6847 57.291 40.5431 54.0516 39.6996 50.9034C38.8485 47.7272 35.5734 45.8481 32.4112 46.6954Z"
          fill="#FF6393"/>
</svg>
