<svg width="84" height="84" viewBox="0 0 84 84" fill="none" xmlns="http://www.w3.org/2000/svg">
    <rect width="84" height="84" rx="14.7" fill="url(#paint0_linear)"/>
    <path fill-rule="evenodd" clip-rule="evenodd"
          d="M47.5208 25.7945C51.1134 22.202 56.9381 22.202 60.5307 25.7945C64.1233 29.3871 64.1233 35.2119 60.5305 38.8045L52.166 47.1689C50.9895 48.3458 49.5157 49.1815 47.9017 49.5869H47.8294L47.4483 49.6658L47.238 49.7052L46.7846 49.7709H46.5613C46.4622 49.7709 46.3698 49.7819 46.2814 49.7925C46.2174 49.8001 46.1555 49.8076 46.0947 49.8103L45.7005 49.8563H45.6611H45.2011C44.8734 49.8432 44.5466 49.8125 44.2221 49.7643C43.9527 49.7183 43.6899 49.6657 43.4271 49.6L43.0394 49.4949C42.9014 49.4555 42.7569 49.4095 42.6189 49.3569C42.5683 49.3377 42.5169 49.3193 42.4653 49.3008C42.3759 49.2689 42.2858 49.2367 42.1984 49.1992C42.1524 49.1795 42.1064 49.1605 42.0604 49.1416C41.9684 49.1036 41.8764 49.0656 41.7844 49.0218C40.8065 48.5687 39.9167 47.9458 39.1562 47.1821C38.6235 46.6481 38.3459 45.9109 38.394 45.1583C38.4362 44.5239 38.707 43.9263 39.1562 43.4762C40.1934 42.4999 41.8115 42.4999 42.8489 43.4762C44.3881 45.0135 46.8816 45.0135 48.4208 43.4762L50.576 41.3341L50.6286 41.275L56.7919 35.1183C58.3323 33.5779 58.3323 31.0803 56.7919 29.5398C55.2514 27.9994 52.7538 27.9994 51.2134 29.5398L46.2657 34.481C46.0782 34.6696 45.7955 34.7268 45.5495 34.6255C44.2168 34.0805 42.7906 33.8015 41.3508 33.8042H41.1077C40.8393 33.8093 40.5948 33.6506 40.4901 33.4034C40.3843 33.1568 40.4388 32.8708 40.6281 32.6806L47.5208 25.7945ZM46.3118 37.2275C46.8709 37.583 47.3888 37.9995 47.8559 38.4694C48.3886 39.0033 48.6661 39.7404 48.6182 40.4931C48.5728 41.1229 48.3022 41.7154 47.8559 42.162C46.8187 43.1383 45.2006 43.1383 44.1633 42.162C42.624 40.6247 40.1305 40.6247 38.5913 42.162L30.2005 50.5462C28.6601 52.0867 28.6601 54.5842 30.2005 56.1247C31.741 57.6651 34.2386 57.6651 35.779 56.1247L40.7399 51.1573C40.9273 50.9686 41.2101 50.9115 41.4561 51.0127C42.7913 51.5557 44.2199 51.8326 45.6613 51.8275H45.9241C46.287 51.8254 46.5829 52.1178 46.585 52.4807C46.586 52.6572 46.516 52.8268 46.3906 52.9511L39.4914 59.8503C37.7693 61.5744 35.4299 62.5396 32.993 62.5311C27.9126 62.5279 23.7968 58.4067 23.8 53.3263C23.8015 50.8917 24.7682 48.557 26.4881 46.8338L34.8459 38.4694C36.5687 36.7406 38.9102 35.7708 41.3509 35.7754C43.1094 35.7754 44.8309 36.2792 46.3118 37.2275Z"
          fill="white"/>
    <defs>
        <linearGradient id="paint0_linear" x1="-41.4865" y1="25.6119" x2="20.8844" y2="108.585"
                        gradientUnits="userSpaceOnUse">
            <stop stop-color="#B5EDF5"/>
            <stop offset="1" stop-color="#85CDFE"/>
        </linearGradient>
    </defs>
</svg>
