<svg width="75" height="59" viewBox="0 0 75 59" fill="none" xmlns="http://www.w3.org/2000/svg">
    <path fill-rule="evenodd" clip-rule="evenodd"
          d="M34.7584 7.60147C34.7584 11.3409 31.7162 14.3831 27.9767 14.3831C24.2372 14.3831 21.1951 11.341 21.1951 7.60147C21.1951 3.86194 24.2372 0.819824 27.9767 0.819824C31.7162 0.819824 34.7584 3.86194 34.7584 7.60147ZM30.7692 7.60155C30.7692 6.06192 29.5163 4.80912 27.9767 4.80912C26.4371 4.80912 25.1843 6.06192 25.1843 7.60155C25.1843 9.1411 26.4371 10.394 27.9767 10.394C29.5163 10.394 30.7692 9.1411 30.7692 7.60155Z"
          fill="#85DCF4"/>
    <path d="M27.9767 14.6831C31.8819 14.6831 35.0584 11.5066 35.0584 7.60147H34.4584C34.4584 11.1752 31.5505 14.0831 27.9767 14.0831V14.6831ZM20.8951 7.60147C20.8951 11.5067 24.0715 14.6831 27.9767 14.6831V14.0831C24.4029 14.0831 21.4951 11.1753 21.4951 7.60147H20.8951ZM27.9767 0.519824C24.0715 0.519824 20.8951 3.69626 20.8951 7.60147H21.4951C21.4951 4.02763 24.4029 1.11982 27.9767 1.11982V0.519824ZM35.0584 7.60147C35.0584 3.69625 31.8819 0.519824 27.9767 0.519824V1.11982C31.5505 1.11982 34.4584 4.02763 34.4584 7.60147H35.0584ZM27.9767 5.10912C29.3506 5.10912 30.4692 6.22761 30.4692 7.60155H31.0692C31.0692 5.89623 29.682 4.50912 27.9767 4.50912V5.10912ZM25.4843 7.60155C25.4843 6.22761 26.6028 5.10912 27.9767 5.10912V4.50912C26.2714 4.50912 24.8843 5.89623 24.8843 7.60155H25.4843ZM27.9767 10.094C26.6028 10.094 25.4843 8.97542 25.4843 7.60155H24.8843C24.8843 9.30678 26.2714 10.694 27.9767 10.694V10.094ZM30.4692 7.60155C30.4692 8.97542 29.3506 10.094 27.9767 10.094V10.694C29.682 10.694 31.0692 9.30679 31.0692 7.60155H30.4692Z"
          fill="white"/>
    <path fill-rule="evenodd" clip-rule="evenodd"
          d="M46.5521 30.1922C42.8127 30.1922 39.7705 27.1501 39.7705 23.4106C39.7705 19.6711 42.8127 16.629 46.5521 16.6289C50.2917 16.6289 53.3338 19.6711 53.3338 23.4106C53.3338 27.15 50.2917 30.1922 46.5521 30.1922ZM49.3446 23.4106C49.3446 21.871 48.0918 20.6181 46.5521 20.6181C45.0126 20.6181 43.7597 21.871 43.7597 23.4106C43.7597 24.9502 45.0126 26.2031 46.5521 26.2031C48.0918 26.2031 49.3446 24.9502 49.3446 23.4106Z"
          fill="#85DCF4"/>
    <path d="M46.5521 16.6289L46.5521 16.3289L46.5521 16.3289L46.5521 16.6289ZM39.4705 23.4106C39.4705 27.3158 42.647 30.4922 46.5521 30.4922V29.8922C42.9784 29.8922 40.0705 26.9844 40.0705 23.4106H39.4705ZM46.5521 16.3289C42.647 16.329 39.4705 19.5054 39.4705 23.4106H40.0705C40.0705 19.8368 42.9784 16.929 46.5521 16.9289L46.5521 16.3289ZM53.6338 23.4106C53.6338 19.5054 50.4573 16.3289 46.5521 16.3289V16.9289C50.126 16.9289 53.0338 19.8368 53.0338 23.4106H53.6338ZM46.5521 30.4922C50.4573 30.4922 53.6338 27.3157 53.6338 23.4106H53.0338C53.0338 26.9843 50.126 29.8922 46.5521 29.8922V30.4922ZM46.5521 20.9181C47.9261 20.9181 49.0446 22.0367 49.0446 23.4106H49.6446C49.6446 21.7053 48.2574 20.3181 46.5521 20.3181V20.9181ZM44.0597 23.4106C44.0597 22.0367 45.1783 20.9181 46.5521 20.9181V20.3181C44.8469 20.3181 43.4597 21.7053 43.4597 23.4106H44.0597ZM46.5521 25.9031C45.1783 25.9031 44.0597 24.7845 44.0597 23.4106H43.4597C43.4597 25.1159 44.8469 26.5031 46.5521 26.5031V25.9031ZM49.0446 23.4106C49.0446 24.7845 47.9261 25.9031 46.5521 25.9031V26.5031C48.2575 26.5031 49.6446 25.1159 49.6446 23.4106H49.0446Z"
          fill="white"/>
    <rect x="28.5632" y="28.4478" width="30.9305" height="3.98885" transform="rotate(-63.4349 28.5632 28.4478)"
          fill="#85DCF4" stroke="white" stroke-width="0.6"/>
    <path d="M74.2186 28.6931C73.9423 27.8866 73.1839 27.3448 72.3315 27.3448H62.3729V7.60186H58.3837V29.3394C58.3837 30.4412 59.2766 31.334 60.3783 31.334H66.5089L37.2788 54.0237L8.71288 31.334H14.9483C16.05 31.334 16.9429 30.4411 16.9429 29.3394V1.67334H12.9537V27.3448H2.99478C2.14632 27.3448 1.39094 27.8812 1.11156 28.6826C0.831863 29.4835 1.08975 30.3737 1.75436 30.9012L36.0244 58.1216C36.3875 58.4099 36.8257 58.5544 37.2648 58.5544C37.696 58.5544 38.1277 58.415 38.4881 58.1352L73.5543 30.9148C74.2279 30.3924 74.4948 29.4995 74.2186 28.6931Z"
          fill="#5F2DAD" stroke="white" stroke-width="0.6"/>
</svg>
