<svg width="65" height="65" viewBox="0 0 65 65" fill="none" xmlns="http://www.w3.org/2000/svg">
    <path d="M33.2434 31.5434H29.6567C28.3932 31.5434 27.3606 30.5072 27.3606 29.2392C27.3606 27.9712 28.3932 26.9351 29.6567 26.9351L35.9741 26.9351C36.8708 26.9351 37.6044 26.1988 37.6044 25.299C37.6044 24.3991 36.8708 23.6629 35.9741 23.6629H33.0803V21.536C33.0803 20.6361 32.3467 19.8999 31.45 19.8999C30.5533 19.8999 29.8197 20.6361 29.8197 21.536V23.6629H29.6567C26.5862 23.6629 24.1 26.1716 24.1 29.2392C24.1 32.3205 26.5998 34.8155 29.6567 34.8155H33.2434C34.5068 34.8155 35.5394 35.8517 35.5394 37.1197C35.5394 38.3877 34.5068 39.4238 33.2434 39.4238H26.8036C25.9069 39.4238 25.1733 40.1601 25.1733 41.0599C25.1733 41.9598 25.9069 42.696 26.8036 42.696H29.8197V44.8638C29.8197 45.7637 30.5533 46.4999 31.45 46.4999C32.3467 46.4999 33.0803 45.7637 33.0803 44.8638V42.696H33.2705C33.2841 42.696 33.2977 42.696 33.3113 42.696C36.3409 42.6551 38.8 40.1737 38.8 37.1197C38.8 34.0384 36.3002 31.5434 33.2434 31.5434Z"
          fill="#FF6393"/>
    <path d="M16.4 43C15.63 43 15 43.63 15 44.4V55.25C8 49.79 3.8 41.39 3.8 32.5C3.8 16.68 16.68 3.8 32.5 3.8C33.27 3.8 33.9 3.17 33.9 2.4C33.9 1.63 33.27 1 32.5 1C15.14 1 1 15.14 1 32.5C1 42.02 5.34 51.05 12.69 57H2.4C1.63 57 1 57.63 1 58.4C1 59.17 1.63 59.8 2.4 59.8H16.4C17.17 59.8 17.8 59.17 17.8 58.4V44.4C17.8 43.63 17.17 43 16.4 43Z"
          fill="#5F2DAD" stroke="#5F2DAD" stroke-width="0.7"/>
    <path d="M52.31 8.0002H62.6C63.37 8.0002 64 7.3702 64 6.6002C64 5.8302 63.37 5.2002 62.6 5.2002H48.6C47.83 5.2002 47.2 5.8302 47.2 6.6002V20.6002C47.2 21.3702 47.83 22.0002 48.6 22.0002C49.37 22.0002 50 21.3702 50 20.6002V9.7502C57.07 15.2102 61.2 23.5402 61.2 32.5002C61.2 48.3202 48.32 61.2002 32.5 61.2002C31.73 61.2002 31.1 61.8302 31.1 62.6002C31.1 63.3702 31.73 64.0002 32.5 64.0002C49.86 64.0002 64 49.8602 64 32.5002C64 22.9802 59.66 13.9502 52.31 8.0002Z"
          fill="#5F2DAD" stroke="#5F2DAD" stroke-width="0.7"/>
</svg>
