<svg width="84" height="84" viewBox="0 0 84 84" fill="none" xmlns="http://www.w3.org/2000/svg">
    <rect width="84" height="84" rx="14.7" fill="url(#paint0_linear)"/>
    <path fill-rule="evenodd" clip-rule="evenodd"
          d="M39.0429 43.5472L20.9997 29.536V27.1168C20.9997 25.9072 21.9069 25 23.1165 25H59.6061C60.8157 25 61.7229 25.9072 61.7229 27.1168V29.536L43.7805 43.5472C42.3693 44.656 40.4541 44.656 39.0429 43.5472ZM51.4413 40.624L61.7229 32.56V53.9296L51.4413 40.624ZM20.9997 53.9296L31.3821 40.624L20.9997 32.56V53.9296ZM49.5261 42.0352L60.4125 56.0464C60.2109 56.1472 59.9085 56.1472 59.6061 56.1472H23.1165C22.8141 56.1472 22.6125 56.1472 22.3101 56.0464L33.1965 42.0352L37.5309 45.3616C39.8493 47.176 42.9741 47.176 45.1917 45.3616L49.5261 42.0352Z"
          fill="white"/>
    <path d="M52.4168 50.1175C51.7334 50.1911 51.2194 50.6209 50.9238 51.1748C50.4975 50.4127 49.6081 49.9938 48.7104 50.2344C48.1235 50.3917 47.7131 50.7937 47.4428 51.3043C47.0003 50.6196 46.1292 50.2688 45.3006 50.4908C44.7827 50.6296 44.354 50.9635 44.1 51.3967L42.2106 44.3451C41.955 43.3913 41.0363 42.7247 40.0766 42.8723C38.9007 43.0413 38.1368 44.1953 38.4289 45.2854L41.7879 57.8215C41.8518 58.06 41.5339 58.2547 41.341 58.0873L38.2895 55.3999C37.5617 54.7552 36.3858 54.9242 35.6686 55.7005C34.9606 56.5109 34.9765 57.675 35.6607 58.295C35.6607 58.295 44.2619 65.8118 44.3056 65.8366C45.8212 67.0735 47.8976 67.503 49.8311 66.9849L52.0064 66.402C55.2865 65.5231 57.2859 62.2125 56.4533 58.967C56.4441 58.933 56.435 58.8989 56.4167 58.8308L54.4816 51.6089C54.2951 50.6366 53.3764 49.9699 52.4168 50.1175Z"
          fill="white" stroke="#7972FF" stroke-width="1.4"/>
    <defs>
        <linearGradient id="paint0_linear" x1="0" y1="0" x2="0" y2="84" gradientUnits="userSpaceOnUse">
            <stop stop-color="#838EF9"/>
            <stop offset="1" stop-color="#665CFA"/>
        </linearGradient>
    </defs>
</svg>
