<svg width="58" height="58" viewBox="0 0 58 58" fill="none" xmlns="http://www.w3.org/2000/svg">
    <path fill-rule="evenodd" clip-rule="evenodd"
          d="M25.698 26.2006L0 6.40777V2.99029C0 1.28155 1.29208 0 3.01485 0H54.9851C56.7079 0 58 1.28155 58 2.99029V6.40777L32.4455 26.2006C30.4356 27.767 27.7079 27.767 25.698 26.2006ZM43.3564 22.0712L58 10.6796V40.8673L43.3564 22.0712ZM0 40.8673L14.7871 22.0712L0 10.6796V40.8673ZM40.6287 24.0647L56.1337 43.8576C55.8465 44 55.4158 44 54.9851 44H3.01485C2.58416 44 2.29703 44 1.86634 43.8576L17.3713 24.0647L23.5446 28.7638C26.8465 31.3269 31.297 31.3269 34.4554 28.7638L40.6287 24.0647Z"
          fill="url(#paint0_linear)"/>
    <path d="M45.0815 29.5821C44.1052 29.6872 43.371 30.3012 42.9486 31.0924C42.3397 30.0038 41.0692 29.4054 39.7868 29.749C38.9482 29.9737 38.362 30.548 37.9759 31.2774C37.3438 30.2993 36.0993 29.7982 34.9155 30.1154C34.1756 30.3136 33.5633 30.7906 33.2005 31.4095L30.5013 21.3358C30.1361 19.9732 28.8237 19.0209 27.4528 19.2317C25.7729 19.4732 24.6815 21.1218 25.0988 22.6791L29.8974 40.5878C29.9887 40.9285 29.5346 41.2066 29.259 40.9675L24.8998 37.1283C23.86 36.2072 22.1801 36.4487 21.1556 37.5578C20.1442 38.7155 20.1668 40.3785 21.1443 41.2641C21.1443 41.2641 33.4318 52.0025 33.4941 52.0379C35.6593 53.8049 38.6256 54.4184 41.3878 53.6783L44.4952 52.8456C49.1811 51.5901 52.0374 46.8606 50.8479 42.2242C50.8349 42.1756 50.8219 42.1269 50.7958 42.0296L48.0314 31.7126C47.7649 30.3235 46.4524 29.3712 45.0815 29.5821Z"
          fill="url(#paint1_linear)" stroke="white" stroke-width="2"/>
    <defs>
        <linearGradient id="paint0_linear" x1="0" y1="0" x2="0" y2="44" gradientUnits="userSpaceOnUse">
            <stop stop-color="#838EF9"/>
            <stop offset="1" stop-color="#665CFA"/>
        </linearGradient>
        <linearGradient id="paint1_linear" x1="15.7155" y1="22.3555" x2="25.2659" y2="57.9981"
                        gradientUnits="userSpaceOnUse">
            <stop stop-color="#838EF9"/>
            <stop offset="1" stop-color="#665CFA"/>
        </linearGradient>
    </defs>
</svg>
