<svg width="72" height="72" viewBox="0 0 72 72" fill="none" xmlns="http://www.w3.org/2000/svg">
    <path fill-rule="evenodd" clip-rule="evenodd"
          d="M59.375 12.5804V5.9375C59.3708 2.66 56.715 0.00415625 53.4375 0H5.9375C2.66 0.00415625 0.00415625 2.66 0 5.9375V32.0625C0.00920315 35.0951 2.30791 37.6313 5.32475 37.9388L9.78856 49.5262C10.9678 52.5858 14.4038 54.1099 17.4637 52.9322L45.3388 42.1943C43.4126 47.2254 43.9607 52.8693 46.8178 57.4361L47.5 58.5271V70.0625C47.5 70.7186 48.0314 71.25 48.6875 71.25H70.0625C70.7186 71.25 71.25 70.7186 71.25 70.0625V30.8646C71.2387 26.7579 69.6038 22.8232 66.7004 19.9188L59.375 12.5804ZM59.375 19.6822L62.9791 29.0379C63.6853 30.8744 62.7701 32.935 60.9339 33.6419L58.8739 34.4375C59.2028 33.6888 59.3732 32.8795 59.375 32.0625V19.6822ZM2.375 5.9375V32.0625C2.375 34.0296 3.97041 35.625 5.9375 35.625H41.5352L36.898 30.56C34.6159 28.0158 34.7641 24.1208 37.2317 21.7556C39.6987 19.3919 43.5967 19.4103 46.0418 21.7989L56.9193 32.6776C56.9638 32.4752 56.9908 32.2697 57 32.0625V13.5123L56.9896 13.4853H57V5.9375C57 3.97041 55.4046 2.375 53.4375 2.375H5.9375C3.97041 2.375 2.375 3.97041 2.375 5.9375ZM17.5881 38L9.14375 41.2511L7.8945 38H17.5881ZM12.0044 48.6721C12.7119 50.5079 14.7737 51.4232 16.6096 50.7155L45.2553 39.6756L43.7119 37.9929H24.1763V38L10.0011 43.4625L12.0044 48.6721ZM49.875 68.875V59.375H68.875V68.875H49.875ZM49.3466 57H68.875V30.8646C68.8655 27.3885 67.4794 24.0582 65.0213 21.6006L61.1744 17.7457L65.1938 28.1826C66.37 31.2416 64.8464 34.6747 61.7892 35.8542L60.5708 36.3292L64.9646 40.7229L63.2854 42.4021L44.3623 23.4834C42.8388 21.9658 40.3821 21.9414 38.828 23.4294C37.2744 24.917 37.1928 27.3725 38.6439 28.9608L48.3752 39.577C48.7243 39.9576 48.7873 40.5205 48.5308 40.9688C45.8209 45.7057 45.9361 51.55 48.8315 56.1771L49.3466 57Z"
          fill="#6534B0"/>
    <path d="M49.875 5.9375H52.25V9.5H49.875V5.9375Z" fill="#85DCF4"/>
    <path d="M45.125 5.9375H47.5V9.5H45.125V5.9375Z" fill="#85DCF4"/>
    <path d="M40.375 5.9375H42.75V9.5H40.375V5.9375Z" fill="#85DCF4"/>
    <path d="M35.625 5.9375H38V9.5H35.625V5.9375Z" fill="#85DCF4"/>
    <path fill-rule="evenodd" clip-rule="evenodd"
          d="M8.49394 20.7916H13.2477L14.3079 23.7499H16.2402L11.9823 12.4639H9.79354L5.53564 23.7499H7.41664L8.49394 20.7916ZM11.4009 15.6787L12.7005 19.3039H9.02404L10.3578 15.6445L10.8366 14.0542H10.8879L11.4009 15.6787Z"
          fill="#FF6393"/>
    <path fill-rule="evenodd" clip-rule="evenodd"
          d="M20.0535 19.2355H22.4817L25.3545 23.7499H27.4578L24.3969 19.0303C25.1607 18.8023 25.7507 18.4175 26.1668 17.876C26.5829 17.3345 26.7909 16.6591 26.7909 15.8497C26.7909 14.7895 26.4375 13.9601 25.7307 13.3616C25.0239 12.7631 24.0606 12.4639 22.8408 12.4639H18.2409V23.7499H20.0535V19.2355ZM20.0535 14.02V17.7136H22.6869C23.4279 17.7136 23.9808 17.5625 24.3456 17.2604C24.7104 16.9583 24.8928 16.4938 24.8928 15.8668C24.8928 15.2398 24.7104 14.7752 24.3456 14.4731C23.9808 14.171 23.4279 14.02 22.6869 14.02H20.0535Z"
          fill="#FF6393"/>
</svg>
