<svg width="84" height="84" viewBox="0 0 84 84" fill="none" xmlns="http://www.w3.org/2000/svg">
    <rect width="84" height="84" rx="14.7" fill="url(#paint0_linear)"/>
    <path fill-rule="evenodd" clip-rule="evenodd"
          d="M51.6923 15C42.7231 15 35.3846 19.6885 35.3846 29.2692C35.3846 33.3462 36.8115 36.6077 39.0538 39.0538L35.3846 47.6154L44.3538 42.3154C46.5962 43.1308 49.0423 43.5385 51.6923 43.5385C60.6615 43.5385 68 38.85 68 29.2692C68 19.6885 60.6615 15 51.6923 15ZM43.5385 31.3077C42.3154 31.3077 41.5 30.4923 41.5 29.2692C41.5 28.0462 42.3154 27.2308 43.5385 27.2308C44.7615 27.2308 45.5769 28.0462 45.5769 29.2692C45.5769 30.4923 44.7615 31.3077 43.5385 31.3077ZM49.6538 29.2692C49.6538 30.4923 50.4692 31.3077 51.6923 31.3077C52.9154 31.3077 53.7308 30.4923 53.7308 29.2692C53.7308 28.0462 52.9154 27.2308 51.6923 27.2308C50.4692 27.2308 49.6538 28.0462 49.6538 29.2692ZM59.8462 31.3077C58.6231 31.3077 57.8077 30.4923 57.8077 29.2692C57.8077 28.0462 58.6231 27.2308 59.8462 27.2308C61.0692 27.2308 61.8846 28.0462 61.8846 29.2692C61.8846 30.4923 61.0692 31.3077 59.8462 31.3077ZM43.7423 55.5654L51.8962 57.6038C52.9154 57.8077 53.5269 58.8269 53.5269 59.8462L52.3038 68C16.2231 63.9231 15 30.6962 15 30.6962L23.1538 29.4731C24.1731 29.4731 25.1923 30.0846 25.6 31.1038L27.6385 39.2577C27.8423 40.2769 27.6385 41.2962 27.2308 42.1115L25.6 45.5769C25.1923 46.1885 25.1923 46.8 25.6 47.4115C28.0462 52.1 30.6962 54.75 35.5885 57.4C36.2 57.6038 36.8115 57.6038 37.4231 57.4L40.8885 55.9731C41.7038 55.3615 42.7231 55.3615 43.7423 55.5654Z"
          fill="white"/>
    <defs>
        <linearGradient id="paint0_linear" x1="0" y1="0" x2="0" y2="84" gradientUnits="userSpaceOnUse">
            <stop stop-color="#CBEFA3"/>
            <stop offset="1" stop-color="#92DE9B"/>
        </linearGradient>
    </defs>
</svg>
